<?xml version="1.0" standalone="no"?><!DOCTYPE svg PUBLIC "-//W3C//DTD SVG 1.1//EN"
        "http://www.w3.org/Graphics/SVG/1.1/DTD/svg11.dtd">
<svg t="1685083029023" class="icon" viewBox="0 0 1024 1024" version="1.1" xmlns="http://www.w3.org/2000/svg" p-id="2471"
     xmlns:xlink="http://www.w3.org/1999/xlink" width="200" height="200">
    <path d="M966.208 246.752L534.144 21.408a47.968 47.968 0 0 0-44.128-0.128L58.08 243.136A47.968 47.968 0 0 0 32 285.824V744.64a48.038 48.038 0 0 0 26.592 42.976l432 215.36a48 48 0 0 0 42.816 0l432-215.36A48 48 0 0 0 992 744.672V289.344a48.055 48.055 0 0 0-25.792-42.592zM508.384 463.68l-162.176-79.808 367.36-196.704 158.4 82.624L508.384 463.68z m3.488-381.696l132.992 69.376-369.312 197.76-144.896-71.328L511.872 81.984zM96 332.096l153.216 75.392v168.256a32 32 0 0 0 64 0V439.008L480 521.024v405.184L96 734.752V332.096z m448 594.112V517.184l384-204.736v422.304L544 926.208z"
          fill="#1296DB" p-id="2472"></path>
</svg>